<?xml version="1.0" encoding="UTF-8"?>
<svg width="200" height="50" viewBox="0 0 200 50" fill="none" xmlns="http://www.w3.org/2000/svg">
  <!-- Lightning Bolt Icon -->
  <path d="M30 5L17 25H28L15 45L35 20H23L30 5Z" fill="#00FF66" />
  
  <!-- LIGHTSPEED Text -->
  <path d="M45 15H50V35H45V15Z" fill="#F8F8F8" />
  <path d="M52 15H57V35H52V15Z" fill="#F8F8F8" />
  <path d="M59 15H74V20H64V23H72V28H64V30H74V35H59V15Z" fill="#F8F8F8" />
  <path d="M76 15H81V30H91V35H76V15Z" fill="#F8F8F8" />
  <path d="M93 15H108V20H98V23H106V28H98V30H108V35H93V15Z" fill="#F8F8F8" />
  <path d="M110 15H115V23C115 25 116 26 118 26C120 26 121 25 121 23V15H126V23C126 28 123 36 118 36C113 36 110 28 110 23V15Z" fill="#F8F8F8" />
  <path d="M128 15H143V20H133V23H141V28H133V30H143V35H128V15Z" fill="#F8F8F8" />
  <path d="M145 15H150V30H160V35H145V15Z" fill="#F8F8F8" />
  <path d="M162 15H177C180 15 183 18 183 20C183 22 182 24 180 25C182 26 183 27 183 29C183 32 180 35 177 35H162V15ZM167 23H175C176 23 177 22 177 21C177 20 176 19 175 19H167V23ZM167 31H175C176 31 177 30 177 29C177 28 176 27 175 27H167V31Z" fill="#F8F8F8" />
</svg>
